<svg width="57" height="57" viewBox="0 0 57 57" fill="none" xmlns="http://www.w3.org/2000/svg">
<path d="M34.2861 12.3882C34.8623 11.8275 35.8711 11.8275 36.4473 12.3882C36.7326 12.6659 36.8889 13.0428 36.876 13.4185L36.873 13.7339C36.8841 16.3285 37.3472 19.3195 38.5586 21.98C40.3622 25.9412 43.4596 28.2232 48.2207 28.2232C49.0505 28.2232 49.7253 28.8603 49.7256 29.65C49.7256 30.4399 49.0507 31.0777 48.2207 31.0777C43.4596 31.0777 40.3622 33.3597 38.5586 37.3209C37.4818 39.6859 36.9968 42.3121 36.8945 44.6871L36.873 45.6753L36.876 45.8707C36.8892 46.2584 36.7361 46.6353 36.4512 46.9126C36.1676 47.1886 35.7777 47.3443 35.3721 47.3443C34.9594 47.3443 34.5697 47.1886 34.2861 46.9126C34.0012 46.6353 33.8484 46.2585 33.8613 45.8824L33.8643 45.5669C33.8532 42.973 33.3893 39.9815 32.1777 37.3209C30.3738 33.3598 27.2767 31.0777 22.5156 31.0777C21.6857 31.0777 21.0107 30.4398 21.0107 29.65C21.011 28.8603 21.6858 28.2232 22.5156 28.2232C27.2767 28.2232 30.3738 25.9411 32.1777 21.98C33.2547 19.615 33.7404 16.9885 33.8428 14.6138L33.8643 13.6255L33.8613 13.4302C33.848 13.0425 34.0012 12.6656 34.2861 12.3882ZM35.2178 22.5132C33.94 25.6821 31.9435 28.1472 29.0889 29.6119L29.0059 29.6509L29.0889 29.689C31.9433 31.1537 33.94 33.618 35.2178 36.7867L35.3672 37.1802L35.5186 36.7867C36.7962 33.6176 38.7931 31.1536 41.6475 29.689L41.7266 29.6509L41.6475 29.6119C38.7931 28.1473 36.7962 25.6833 35.5186 22.5142L35.3672 22.1187L35.2178 22.5132ZM13.7139 9.60503C14.2238 9.39697 14.8205 9.50672 15.2119 9.88237C15.4551 10.1156 15.5965 10.4394 15.6045 10.7701L15.6064 11.0826C15.6566 12.8982 16.1375 14.7168 17.2861 15.8169C17.9794 16.4809 18.8627 16.8023 20.0195 16.8023C20.7678 16.8024 21.3759 17.3763 21.376 18.0875C21.376 18.7987 20.7678 19.3725 20.0195 19.3726C18.8487 19.3726 17.9584 19.7024 17.2617 20.3824C16.1863 21.4322 15.7115 23.087 15.6221 24.6929L15.6064 25.3287C15.6267 25.8744 15.2993 26.361 14.7852 26.5699C14.6158 26.6387 14.435 26.6734 14.252 26.6734C13.5112 26.6659 12.9204 26.12 12.8965 25.4322L12.8945 25.1363C12.8548 23.3205 12.3783 21.4737 11.2148 20.3589C10.5215 19.6948 9.63845 19.3726 8.48145 19.3726C7.7331 19.3726 7.125 18.7987 7.125 18.0875C7.12508 17.3763 7.73314 16.8023 8.48145 16.8023C9.65182 16.8023 10.5416 16.4734 11.2383 15.7935C12.3123 14.745 12.786 13.095 12.877 11.4859L12.8926 10.8306L12.9053 10.606C12.9704 10.1661 13.2737 9.78389 13.7139 9.60503ZM14.1406 16.4048C13.8528 16.8534 13.5208 17.262 13.1426 17.6246C13.0327 17.7298 12.9197 17.8304 12.8037 17.9263L12.5938 18.0875L12.834 18.274L13.1855 18.5923C13.5516 18.9495 13.8735 19.3511 14.1533 19.7916L14.25 19.9546L14.3477 19.7906C14.5343 19.4971 14.7396 19.2206 14.9639 18.9634L15.3145 18.5923C15.4278 18.4814 15.5454 18.376 15.666 18.275L15.9062 18.0875L15.666 17.9009L15.3145 17.5835C14.9493 17.2267 14.6283 16.8259 14.3486 16.3863L14.25 16.2193L14.1406 16.4048Z" fill="#DB3B2B"/>
</svg>
