<svg width="24" height="24" viewBox="0 0 24 24" fill="none" xmlns="http://www.w3.org/2000/svg">
<path d="M15.535 11.2931C15.3475 11.4806 15.2422 11.7349 15.2422 12.0001C15.2422 12.2652 15.3475 12.5195 15.535 12.7071L17.911 15.0841C18.0985 15.2715 18.3528 15.3769 18.618 15.3769C18.8831 15.3769 19.1374 15.2715 19.325 15.0841L21.702 12.7071C21.8894 12.5195 21.9948 12.2652 21.9948 12.0001C21.9948 11.7349 21.8894 11.4806 21.702 11.2931L19.325 8.91608C19.1374 8.72861 18.8831 8.62329 18.618 8.62329C18.3528 8.62329 18.0985 8.72861 17.911 8.91608L15.535 11.2931Z" stroke="#DB3B2B" stroke-width="2" stroke-linecap="round" stroke-linejoin="round"/>
<path d="M2.29669 11.2931C2.10922 11.4806 2.00391 11.7349 2.00391 12.0001C2.00391 12.2652 2.10922 12.5195 2.29669 12.7071L4.67369 15.0841C4.86122 15.2715 5.11553 15.3769 5.38069 15.3769C5.64586 15.3769 5.90016 15.2715 6.08769 15.0841L8.46469 12.7071C8.65216 12.5195 8.75748 12.2652 8.75748 12.0001C8.75748 11.7349 8.65216 11.4806 8.46469 11.2931L6.08769 8.91608C5.90016 8.72861 5.64586 8.62329 5.38069 8.62329C5.11553 8.62329 4.86122 8.72861 4.67369 8.91608L2.29669 11.2931Z" stroke="#DB3B2B" stroke-width="2" stroke-linecap="round" stroke-linejoin="round"/>
<path d="M8.91438 17.912C8.8214 18.0048 8.74765 18.1151 8.69732 18.2365C8.647 18.3579 8.62109 18.488 8.62109 18.6194C8.62109 18.7509 8.647 18.881 8.69732 19.0024C8.74765 19.1238 8.8214 19.2341 8.91438 19.327L11.2914 21.7029C11.4789 21.8904 11.7332 21.9957 11.9984 21.9957C12.2635 21.9957 12.5179 21.8904 12.7054 21.7029L15.0824 19.327C15.1754 19.2341 15.2491 19.1238 15.2994 19.0024C15.3498 18.881 15.3757 18.7509 15.3757 18.6194C15.3757 18.488 15.3498 18.3579 15.2994 18.2365C15.2491 18.1151 15.1754 18.0048 15.0824 17.912L12.7054 15.536C12.5179 15.3485 12.2635 15.2432 11.9984 15.2432C11.7332 15.2432 11.4789 15.3485 11.2914 15.536L8.91438 17.912Z" stroke="#DB3B2B" stroke-width="2" stroke-linecap="round" stroke-linejoin="round"/>
<path d="M8.91779 4.67394C8.73032 4.86146 8.625 5.11577 8.625 5.38094C8.625 5.6461 8.73032 5.90041 8.91779 6.08794L11.2948 8.46394C11.4823 8.65141 11.7366 8.75672 12.0018 8.75672C12.267 8.75672 12.5213 8.65141 12.7088 8.46394L15.0858 6.08794C15.2733 5.90041 15.3786 5.6461 15.3786 5.38094C15.3786 5.11577 15.2733 4.86146 15.0858 4.67394L12.7088 2.29694C12.5213 2.10947 12.267 2.00415 12.0018 2.00415C11.7366 2.00415 11.4823 2.10947 11.2948 2.29694L8.91779 4.67394Z" stroke="#DB3B2B" stroke-width="2" stroke-linecap="round" stroke-linejoin="round"/>
</svg>
