<svg width="24" height="24" viewBox="0 0 24 24" fill="none" xmlns="http://www.w3.org/2000/svg">
<path d="M14.4365 5.21575C14.6791 4.97974 15.1041 4.97968 15.3467 5.21575C15.4666 5.3326 15.5317 5.49131 15.5264 5.64935L15.5254 5.78216C15.53 6.87451 15.7254 8.13365 16.2354 9.25384C16.9948 10.9217 18.299 11.8837 20.3037 11.8837C20.6531 11.8838 20.9375 12.1518 20.9375 12.4843C20.9374 12.8167 20.653 13.0848 20.3037 13.0849C18.299 13.0849 16.9948 14.0459 16.2354 15.7138C15.7819 16.7096 15.5773 17.8154 15.5342 18.8154L15.5254 19.2314L15.5264 19.3134C15.532 19.4766 15.4675 19.6351 15.3477 19.7519C15.2283 19.8681 15.0643 19.9345 14.8936 19.9345C14.7198 19.9345 14.5559 19.8681 14.4365 19.7519C14.3166 19.6351 14.2523 19.4766 14.2578 19.3183L14.2588 19.1855C14.2541 18.0933 14.0589 16.834 13.5488 15.7138C12.7893 14.0459 11.4851 13.085 9.48047 13.0849C9.13109 13.0849 8.8468 12.8168 8.84668 12.4843C8.84668 12.1517 9.13102 11.8837 9.48047 11.8837C11.4851 11.8837 12.7893 10.9217 13.5488 9.25384C14.0021 8.25826 14.2069 7.15286 14.25 6.15325L14.2588 5.73626L14.2578 5.65423C14.2523 5.49104 14.3166 5.33247 14.4365 5.21575ZM14.8291 9.47942C14.2911 10.8136 13.4499 11.851 12.248 12.4677L12.2129 12.4843L12.248 12.4999C13.45 13.1166 14.2911 14.1549 14.8291 15.4892L14.8916 15.6542L14.9551 15.4892C15.493 14.1548 16.3343 13.1166 17.5361 12.4999L17.5693 12.4843L17.5361 12.4677C16.3343 11.851 15.493 10.8138 14.9551 9.47942L14.8916 9.31341L14.8291 9.47942ZM5.77441 4.04388C5.989 3.95638 6.24051 4.00209 6.40527 4.16009C6.50757 4.25822 6.56684 4.39499 6.57031 4.53411L6.57129 4.66595C6.5924 5.43038 6.79472 6.19588 7.27832 6.65911C7.57025 6.93875 7.9425 7.07415 8.42969 7.07415C8.74444 7.07439 8.99979 7.31601 9 7.61517C9 7.91449 8.74457 8.15594 8.42969 8.15618C7.93671 8.15618 7.5609 8.29567 7.26758 8.58196C6.81509 9.02393 6.6158 9.72054 6.57812 10.3964L6.57129 10.665C6.57964 10.8946 6.44194 11.0995 6.22559 11.1874C6.15429 11.2164 6.07803 11.2304 6.00098 11.2304C5.68908 11.2272 5.43975 10.9975 5.42969 10.7079V10.5829C5.41289 9.81854 5.2115 9.0415 4.72168 8.5722C4.42979 8.2926 4.05837 8.15622 3.57129 8.15618C3.2562 8.15618 3 7.91464 3 7.61517C3.00021 7.31586 3.25632 7.07415 3.57129 7.07415C4.06406 7.07411 4.43908 6.93567 4.73242 6.64935C5.18445 6.20787 5.38358 5.51325 5.42188 4.83587L5.42871 4.5595L5.43359 4.46575C5.46098 4.28048 5.589 4.11921 5.77441 4.04388ZM5.9541 6.90716C5.83294 7.096 5.6934 7.26819 5.53418 7.42083C5.48783 7.46522 5.43955 7.50732 5.39062 7.54778L5.30273 7.61517L5.40332 7.69427L5.55176 7.82806C5.70584 7.9784 5.84118 8.14753 5.95898 8.33294L6 8.40228L6.04102 8.33294C6.11961 8.20933 6.20634 8.09259 6.30078 7.98431L6.44824 7.82806C6.49591 7.78143 6.54501 7.73676 6.5957 7.69427L6.69727 7.61517L6.59668 7.53704L6.44824 7.40325C6.29457 7.25308 6.15971 7.08433 6.04199 6.89935L6 6.82903L5.9541 6.90716Z" fill="#DB3B2B"/>
</svg>
