<?xml version="1.0" encoding="UTF-8"?>
<svg id="Capa_1" xmlns="http://www.w3.org/2000/svg" version="1.1" viewBox="0 0 1389.4 522.8">
  <!-- Generator: Adobe Illustrator 29.3.1, SVG Export Plug-In . SVG Version: 2.1.0 Build 151)  -->
  <defs>
    <style>
      .st0 {
        fill: #282828;
      }

      .st1 {
        fill: #d93a26;
      }
    </style>
  </defs>
  <g>
    <path class="st1" d="M327.3,231.6h38.2c1.3,0,2.5.4,3.6,1,0,.2,0,.4,0,.6v189.5c0,8.2,8,14.1,15.9,11.7h0c.1,0,.3,0,.4-.1,17.8-7.1,41.2-16.5,58-24.1,3.1-1.3,6.8-2.9,6.9-8.5v-168.4c0-.3,0-.7,0-1v-.6h0v-115.4c0-6.8-5.5-12.3-12.3-12.3h-28.6c-5.1,0-9.8,3.2-11.5,8-11.7,32.5-33.9,56.8-67.5,62.8-1.5.3-3.1.5-4.7.7-6.1.8-10.8,6-10.8,12.2v31.7c0,6.8,5.5,12.3,12.3,12.3Z"/>
    <path class="st1" d="M377.7,91.3c-1.6-1.7-3.9-2.7-6.3-2.7H90.5c-8.8,0-16,6.5-16,14.5v42.5c0,10.3,1.9,14.8,14.7,14.8h93.8c2.5,0,4.5,2,4.5,4.5v35.7c0,.2,0,.3,0,.4v199.9c0,4.4,3,8,7.1,9.7,8.4,3.6,36.9,17.6,46.5,22.7,12.2,6.4,26.7-3.9,26.7-17.7v-243.9c0-.6,0-1.7,0-1.7-.7-3.2.4-6.9,3.6-8.2.7-.3,1.6-.5,2.5-.5h30.7c.1,0,.2,0,.2,0,66.9-6.5,73.7-58.2,74.3-64,0-.3,0-.6,0-1v-1.4c0-1.3-.5-2.6-1.4-3.5Z"/>
  </g>
  <g>
    <path class="st0" d="M571.6,414.9c-21.8,0-39.6-4.6-53.3-13.9-13.7-9.3-22.2-22.3-25.3-39.2l35.5-5.3c2.2,9,7.3,16,15.4,21.2,8,5.2,18,7.8,30,7.8s19.3-2.1,25.5-6.4,9.2-10.1,9.2-17.6-1.1-7.9-3.2-10.6c-2.2-2.7-6.7-5.3-13.5-7.7-6.9-2.5-17.3-5.5-31.4-9.1-15.4-3.8-27.6-8-36.6-12.4-9-4.4-15.5-9.6-19.3-15.5-3.8-5.9-5.7-13.1-5.7-21.5s2.9-19.6,8.6-27.3c5.8-7.8,13.9-13.8,24.3-18.1,10.5-4.3,22.7-6.4,36.8-6.4s26,2.1,36.7,6.2c10.7,4.2,19.4,10,26.1,17.7,6.6,7.6,10.6,16.5,12,26.8l-35.5,6.2c-1.2-8.3-5.3-14.9-12.1-19.7-6.9-4.8-15.8-7.4-26.7-7.8-10.5-.4-19.1,1.3-25.6,5-6.5,3.8-9.8,9-9.8,15.6s1.2,7.1,3.7,9.8c2.5,2.7,7.3,5.2,14.5,7.7,7.2,2.4,17.8,5.4,31.9,8.8,15.1,3.7,27,7.9,35.9,12.4,8.9,4.5,15.2,9.9,19,16.1,3.8,6.2,5.7,13.8,5.7,22.6,0,17-6.5,30.4-19.4,40.1-12.9,9.7-30.7,14.5-53.4,14.5Z"/>
    <path class="st0" d="M747.9,415.1c-18.4,0-34-3.9-46.8-11.8-12.8-7.9-22.7-18.7-29.5-32.4-6.8-13.7-10.3-29.4-10.4-46.8.1-17.8,3.7-33.5,10.6-47.2,7-13.7,16.9-24.4,29.9-32.2,13-7.8,28.5-11.7,46.7-11.7s36.4,4.7,50.3,14.1c13.9,9.4,23.1,22.2,27.5,38.5l-34.6,9.6c-3.4-9.7-9.1-17.2-16.9-22.6-7.8-5.4-16.8-8.1-26.8-8.1s-20.8,2.6-28.1,7.7c-7.3,5.2-12.7,12.2-16.3,21.2-3.5,8.9-5.4,19.2-5.5,30.7.1,17.8,4.3,32.2,12.7,43.2,8.4,11,20.7,16.5,37.1,16.5s20.2-2.5,27.2-7.4c6.9-5,12.2-12.1,15.9-21.3l35.2,8c-5.9,16.8-15.6,29.8-29.1,38.8-13.5,9-29.9,13.5-49.2,13.5Z"/>
    <path class="st0" d="M923,415.1c-17.9,0-33.5-3.9-46.7-11.7-13.2-7.8-23.3-18.5-30.5-32.2-7.1-13.7-10.7-29.5-10.7-47.4s3.7-33.9,11-47.6c7.3-13.7,17.5-24.4,30.7-32,13.2-7.6,28.6-11.4,46.2-11.4s33.5,3.9,46.7,11.7c13.2,7.8,23.4,18.5,30.6,32.1,7.2,13.6,10.8,29.4,10.8,47.2s-3.6,33.9-10.9,47.6c-7.3,13.7-17.5,24.4-30.7,32.1-13.2,7.7-28.7,11.6-46.5,11.6ZM923,383.6c17.2,0,30-5.6,38.5-16.7,8.5-11.1,12.7-25.5,12.7-43.1s-4.3-32.4-12.9-43.2c-8.6-10.8-21.3-16.2-38.3-16.2s-21.2,2.5-28.7,7.6c-7.5,5.1-13.1,12-16.8,20.9-3.7,8.9-5.5,19.2-5.5,30.9,0,18.1,4.3,32.6,13,43.5,8.6,10.9,21.3,16.3,38,16.3Z"/>
    <path class="st0" d="M1037.6,410.3v-172.6h30.9v41.9l-4.3-5.4c2.2-5.5,5.1-10.6,8.6-15.3,3.5-4.6,7.6-8.4,12.3-11.4,4.5-3.2,9.6-5.7,15.2-7.4,5.6-1.8,11.3-2.8,17.2-3.2,5.9-.4,11.5,0,16.9.9v31.3c-5.9-1.5-12.4-1.9-19.5-1.3-7.1.6-13.7,2.8-19.7,6.6-5.7,3.5-10.1,7.8-13.4,12.8-3.3,5-5.6,10.6-7.1,16.7-1.4,6.1-2.2,12.6-2.2,19.4v87.1h-35.1Z"/>
    <path class="st0" d="M1232.3,415.1c-17.8,0-33.5-3.8-46.9-11.3-13.5-7.5-23.9-18-31.4-31.5-7.5-13.5-11.2-29.1-11.2-46.9s3.7-35.2,11-49.1c7.4-13.9,17.6-24.6,30.8-32.1,13.2-7.6,28.5-11.3,46-11.3s33.8,4.1,46.7,12.2c12.8,8.2,22.5,19.7,28.8,34.8,6.4,15,8.9,32.9,7.6,53.5h-34.7v-12.1c-.2-20-4.2-34.8-11.9-44.4-7.7-9.6-19.4-14.4-35.1-14.4s-30.5,5.3-39.2,15.8c-8.7,10.6-13.1,25.8-13.1,45.7s4.4,33.6,13.1,44c8.7,10.4,21.4,15.6,37.9,15.6s20.2-2.4,28.2-7.1c7.9-4.7,14.1-11.5,18.5-20.4l34.1,10.4c-7,15.5-17.6,27.4-31.7,35.9-14.2,8.5-30,12.7-47.3,12.7ZM1168.3,333.4v-26.1h128.1v26.1h-128.1Z"/>
  </g>
</svg>