<svg width="24" height="22" viewBox="0 0 24 22" fill="none" xmlns="http://www.w3.org/2000/svg">
<path d="M16.009 9.10584H18.4362C18.5283 9.10584 18.5898 9.10584 18.6512 9.16737C18.6512 9.16737 18.6512 9.16737 18.6512 9.19813V21.2265C18.6512 21.7495 19.1428 22.1187 19.6651 21.9648C20.8019 21.5034 22.2766 20.9189 23.352 20.4267C23.5363 20.3344 23.7821 20.2421 23.7821 19.8729V9.19813C23.7821 9.19813 23.7821 9.16737 23.7821 9.13661C23.7821 9.10584 23.7821 9.10584 23.7821 9.10584V1.78422C23.7821 1.35353 23.4441 1.01514 23.014 1.01514H21.2013C20.8633 1.01514 20.5868 1.23048 20.4639 1.53811C19.7266 3.59924 18.3133 5.1374 16.1933 5.50656C14.0734 5.87571 16.009 5.53732 15.8861 5.53732C15.4867 5.59884 15.2102 5.90648 15.2102 6.3064V8.306C15.2102 8.73668 15.5481 9.07508 15.9783 9.07508L16.009 9.10584Z" fill="#D93A26"/>
<path d="M19.2023 0.18458C19.1102 0.0922901 18.9565 0 18.8029 0H1.01388C0.460856 0 0 0.399921 0 0.922894V3.63005C0 4.27608 0.122895 4.58371 0.921712 4.58371H6.85139C7.00501 4.58371 7.12791 4.70676 7.12791 4.86058V7.13705V19.8115C7.12791 20.0883 7.31225 20.3037 7.58876 20.4267C8.11107 20.6421 9.92377 21.5342 10.5382 21.8726C11.1527 22.211 12.228 21.6265 12.228 20.7651V5.29126C12.228 5.2605 12.228 5.16821 12.228 5.16821C12.1973 4.95287 12.228 4.73752 12.4431 4.64524C12.5046 4.64524 12.5353 4.64524 12.5967 4.64524H14.5323C18.7722 4.24531 19.2023 0.953658 19.2331 0.5845C19.2331 0.5845 19.2331 0.553737 19.2331 0.522974V0.430684C19.2331 0.338395 19.2331 0.276868 19.1409 0.215342L19.2023 0.18458Z" fill="#D93A26"/>
</svg>
