<svg width="88" height="32" viewBox="0 0 88 32" fill="none" xmlns="http://www.w3.org/2000/svg">
<path d="M65.5781 14.2744C63.2319 14.2744 61.1946 15.1568 59.5435 16.8921C57.8345 18.6274 57.0234 20.7352 57.0234 23.147C57.0234 25.5587 57.8441 27.6666 59.5435 29.3823C61.2042 31.1176 63.2319 31.9999 65.5781 31.9999C67.9244 31.9999 69.981 31.1176 71.7189 29.3823C73.3797 27.696 74.239 25.5882 74.239 23.147C74.239 20.7058 73.37 18.6274 71.7189 16.8921C70.0099 15.1372 67.9823 14.2744 65.5781 14.2744ZM68.8223 26.3823C67.9533 27.2842 66.8913 27.7646 65.6264 27.7646C64.3615 27.7646 63.3284 27.3137 62.4305 26.3823C61.5615 25.4803 61.069 24.3725 61.069 23.0882C61.069 21.8038 61.5615 20.647 62.4305 19.794C63.2994 18.8921 64.3615 18.4117 65.6264 18.4607C66.8913 18.4117 67.9727 18.8627 68.8706 19.794C69.7396 20.6764 70.1355 21.7548 70.1837 23.0882C70.1355 24.3725 69.6913 25.4705 68.8223 26.3823Z" fill="#D9252B"/>
<path d="M11.1616 14.0689C12.4265 14.0689 13.5851 14.4415 14.7245 15.1768C15.719 15.8533 16.53 16.8337 17.0707 17.9611H21.3963C20.7784 15.6278 19.5425 13.667 17.6597 12.2062C15.7769 10.6474 13.5562 9.92188 11.1809 9.92188C8.20707 9.92188 5.76425 10.9807 3.70766 13.1082C1.5545 15.265 0.511719 17.8337 0.511719 20.8435C0.511719 23.8533 1.5545 26.4709 3.64972 28.6278C5.72563 30.7356 8.20707 31.7945 11.1713 31.7945C13.5755 31.7945 15.7769 31.069 17.65 29.5592C19.5039 28.0003 20.7687 26.118 21.3867 23.8043H17.0804C16.5397 24.9611 15.719 25.8631 14.7341 26.5886C13.5948 27.265 12.4844 27.6474 11.1713 27.6474C9.31744 27.6474 7.78223 26.9709 6.51738 25.6866C5.25252 24.4023 4.5863 22.7944 4.63457 20.9415C4.5863 19.0591 5.23321 17.5003 6.51738 16.1964C7.75327 14.765 9.33675 14.0591 11.1423 14.0591L11.1616 14.0689Z" fill="#D9252B"/>
<path d="M42.2441 15.3239C40.8055 14.5494 39.222 14.1671 37.4164 14.2161C34.6164 14.1671 32.695 14.9416 31.5556 16.4514C30.8411 17.3534 30.4646 18.6083 30.397 20.1181H34.5584C34.655 19.3926 34.8771 18.8828 35.1571 18.5592C35.6012 18.0102 36.3157 17.6769 37.3585 17.7259C38.2275 17.6769 38.8937 17.8534 39.3861 18.1279C39.8786 18.3534 40.0524 18.8534 40.1006 19.5396C40.1006 20.0887 39.782 20.5494 39.1641 20.824L35.9681 21.324C34.4812 21.5004 33.3226 21.873 32.4053 22.4318C30.8701 23.3338 30.1073 24.873 30.1556 27.0004C30.1073 28.5102 30.5997 29.6867 31.546 30.6181C32.4149 31.3436 33.5253 31.775 34.935 31.7946C37.1847 31.7455 38.9903 31.1867 40.2551 30.0593V31.7946H44.4166V19.4612C44.3394 17.4514 43.6249 16.0396 42.2634 15.3141L42.2441 15.3239ZM39.9462 24.971C39.9462 26.4318 39.5503 27.4318 38.7875 27.9906C37.9668 28.5397 37.1557 28.873 36.2095 28.873C35.6109 28.873 35.1185 28.6965 34.7226 28.373C34.3267 28.0004 34.124 27.4906 34.124 26.7161C34.124 25.8338 34.4426 25.2553 35.1185 24.8044C35.5143 24.5789 36.2095 24.3534 37.0495 24.2553L39.1254 23.7063L39.9462 23.2553V24.9906V24.971Z" fill="#D9252B"/>
<path d="M27.6732 9.92188H23.5117V31.8337H27.6732V9.92188Z" fill="#D9252B"/>
<path d="M55.527 14.3919L53.9436 14.8429C52.8042 15.2938 51.8194 16.0781 51.0276 17.2252V15.0683L47.1172 15.0193V31.8527H51.2207V23.8135C51.2207 22.4311 51.3945 21.4801 51.7614 20.8527C52.0318 20.2252 52.5821 19.6762 53.2001 19.2448C53.9146 18.7448 54.687 18.5193 55.4498 18.5193L56.7147 18.6174L56.6664 14.3232L55.527 14.4017V14.3919Z" fill="#D9252B"/>
<path d="M67.9266 0H64.2383V10.8824H67.9266V0Z" fill="#D9252B"/>
<path d="M87.7013 19.1172H76.7617V22.8623H87.7013V19.1172Z" fill="#D9252B"/>
<path d="M82.3021 2.08789L72.3281 12.2644L74.9544 14.9016L84.8994 4.74476L82.3021 2.08789Z" fill="#D9252B"/>
</svg>
