<svg width="90" height="24" viewBox="0 0 90 24" fill="none" xmlns="http://www.w3.org/2000/svg">
<g clip-path="url(#clip0_132_2125)">
<path d="M21.1367 19.9673C19.3473 19.7035 19.9987 18.1237 21.1107 16.0717C21.4543 16.0947 22.7458 16.1112 22.7458 16.1112H31.6083C31.6083 16.1112 32.1327 15.1431 33.5168 12.4952C35.8228 8.08498 33.2693 5.47449 28.8906 5.4213C22.6266 5.34511 20.514 8.43213 18.2823 12.4571C17.3701 14.1023 16.324 16.2068 15.8311 17.755C15.198 19.7452 15.6944 21.0842 16.4874 22.0473C17.3035 23.0385 18.6069 23.4352 19.6776 23.5272C22.649 23.7846 27.1139 23.3389 27.1139 23.3389L28.9264 19.835C28.9264 19.835 23.2688 20.2814 21.1367 19.9673ZM27.9714 8.91513C29.1662 8.91513 30.6912 9.38303 29.7853 11.1066C29.2174 12.1897 28.8808 12.8805 28.8808 12.8805H22.6049C24.2315 9.82866 25.5938 8.91513 27.9714 8.91513Z" fill="#002F87"/>
<path d="M59.8984 19.9673C58.1091 19.7035 58.7604 18.1237 59.8725 16.0717C60.2167 16.0947 61.5075 16.1112 61.5075 16.1112H70.37C70.37 16.1112 70.8945 15.1431 72.2785 12.4952C74.5853 8.08498 72.031 5.47449 67.6524 5.4213C61.3876 5.34511 59.2765 8.43213 57.044 12.4571C56.1319 14.1023 55.0864 16.2068 54.5928 17.755C53.9597 19.7452 54.4561 21.0842 55.2484 22.0473C56.0645 23.0385 57.368 23.4352 58.44 23.5272C61.4108 23.7846 65.8757 23.3389 65.8757 23.3389L67.6888 19.835C67.6888 19.835 62.0306 20.2814 59.8984 19.9673ZM66.7332 8.91513C67.9272 8.91513 69.4536 9.38303 68.5484 11.1066C67.9791 12.1897 67.6432 12.8805 67.6432 12.8805H61.3673C62.9933 9.82866 64.3563 8.91513 66.7332 8.91513Z" fill="#002F87"/>
<path d="M80.2771 0.505031L68.4727 23.3971H73.0904L84.8437 0.5L80.2771 0.505031Z" fill="#002F87"/>
<path d="M58.2311 5.66173C58.2311 5.66173 55.9125 5.3807 53.1499 5.41736C51.1166 5.44467 49.7213 5.71492 48.7818 6.01679C45.0223 7.24441 43.5842 10.1374 42.3369 12.4575C41.4752 14.0603 40.4094 15.9923 39.8857 17.7554C38.6678 21.858 41.8173 23.3767 43.7322 23.5269C46.7127 23.7612 50.569 23.3386 50.569 23.3386L52.3576 19.844C52.3576 19.844 47.4041 20.3134 45.2705 20.0079C44.5273 19.9015 44.2082 19.5048 44.1725 18.9341C44.1269 18.2003 44.5434 17.3385 45.1344 16.1116C45.7255 14.8854 46.9497 12.7119 46.9497 12.7119C47.5871 11.5238 48.1164 10.8798 48.7923 10.233C49.9485 9.26697 51.2211 9.06715 53.124 9.07578C54.6041 9.08225 56.3514 9.29068 56.3514 9.29068L58.2311 5.66173Z" fill="#002F87"/>
<path d="M16.7669 5.56845L19.3828 0.504883L14.8058 0.508477L12.1968 5.56845L9.09142 5.57133L7.28597 9.07378L8.97433 9.06803L10.4159 9.02275C10.4159 9.02275 8.61955 12.6661 7.28948 15.2816C6.21953 17.3846 5.57518 18.8272 5.63688 20.2841C5.67124 21.1185 5.97974 21.9077 6.47825 22.4159C7.84899 23.8124 10.0955 23.6737 12.2031 23.5041L14.0667 19.901C12.7689 19.98 11.727 19.9405 11.361 19.8859C10.1417 19.7062 9.90756 19.1564 10.3864 18.163C11.3449 16.1017 14.9754 9.04575 14.9754 9.04575L16.5208 9.09534L18.4566 9.09822L20.2789 5.56917L16.7669 5.56845Z" fill="#002F87"/>
<path d="M41.8521 0.505031L30.0469 23.3971H34.6653L46.4179 0.5L41.8521 0.505031Z" fill="#002F87"/>
</g>
<defs>
<clipPath id="clip0_132_2125">
<rect width="89.5131" height="22.9999" fill="white" transform="translate(0 0.5)"/>
</clipPath>
</defs>
</svg>
